<svg xmlns="http://www.w3.org/2000/svg" viewBox="0 0 100 100">
  <!-- Crust -->
  <circle cx="50" cy="50" r="48" fill="#b5651d" stroke="white" stroke-width="4"/>
  
  <!-- Segments -->
  <path d="M50,50 L50,2 A48,48 0 0,1 93.3,25 Z" fill="#f4a261" />
  <path d="M50,50 L93.3,25 A48,48 0 0,1 93.3,75 Z" fill="#e76f51" />
  <path d="M50,50 L93.3,75 A48,48 0 0,1 50,98 Z" fill="#2a9d8f" />
  <path d="M50,50 L50,98 A48,48 0 0,1 6.7,75 Z" fill="#e9c46a" />
  <path d="M50,50 L6.7,75 A48,48 0 0,1 6.7,25 Z" fill="#264653" />
  <path d="M50,50 L6.7,25 A48,48 0 0,1 50,2 Z" fill="#ffbe0b" />
</svg>